<svg xmlns="http://www.w3.org/2000/svg">
    <symbol id="floppy" fill="none" viewBox="0 0 29 28">
        <path fill="currentColor" d="M.5 0h2.1538v2.1538H.5zM.5 2.1538h2.1538v2.1538H.5zM.5 4.3076h2.1538v2.1538H.5zM.5 6.4614h2.1538v2.1538H.5zM.5 8.6152h2.1538v2.1538H.5zM.5 10.769h2.1538v2.1538H.5zM.5 12.9233h2.1538v2.1538H.5z"/><path fill="currentColor" d="M.5 15.0767h2.1538v2.1538H.5zM.5 17.231h2.1538v2.1538H.5z"/><path fill="currentColor" d="M.5 19.3848h2.1538v2.1538H.5zM.5 21.5386h2.1538v2.1538H.5zM.5 23.6924h2.1538v2.1538H.5zM.5 25.8462h2.1538V28H.5zM24.1927 0v2.1538h-2.1538V0z"/><path fill="currentColor" d="M22.0391 0v2.1538h-2.1538V0zM19.8841 0v2.1538h-2.1538V0z"/><path fill="currentColor" d="M17.7305 0v2.1538h-2.1538V0z"/><path fill="currentColor" d="M15.5768 0v2.1538H13.423V0z"/><path fill="currentColor" d="M13.4232 0v2.1538h-2.1538V0z"/><path fill="currentColor" d="M11.2695 0v2.1538H9.1157V0z"/><path fill="currentColor" d="M9.1159 0v2.1538H6.962V0zM6.961 0v2.1538H4.807V0z"/><path fill="currentColor" d="M4.8073 0v2.1538H2.6535V0zM26.3464 2.1538v2.1538h-2.1538V2.1538zM6.961 4.3076v2.1538H4.8072V4.3076zM6.961 2.1538v2.1538H4.807V2.1538zM6.961 6.4614v2.1538H4.8072V6.4614zM22.0391 4.3076v2.1538h-2.1538V4.3076zM22.0391 2.1538v2.1538h-2.1538V2.1538zM22.0391 6.4614v2.1538h-2.1538V6.4614zM17.7305 4.3076v2.1538h-2.1538V4.3076zM17.7305 2.1538v2.1538h-2.1538V2.1538zM17.7305 6.4614v2.1538h-2.1538V6.4614zM22.0391 8.6152v2.1538h-2.1538V8.6152zM19.8841 8.6152v2.1538h-2.1538V8.6152z"/><path fill="currentColor" d="M17.7305 8.6152v2.1538h-2.1538V8.6152z"/><path fill="currentColor" d="M15.5768 8.6152v2.1538H13.423V8.6152z"/><path fill="currentColor" d="M13.4232 8.6152v2.1538h-2.1538V8.6152z"/><path fill="currentColor" d="M11.2695 8.6152v2.1538H9.1157V8.6152z"/><path fill="currentColor" d="M9.116 8.6152v2.1538H6.962V8.6152zM6.961 8.6152v2.1538H4.8072V8.6152zM24.1927 15.0767v2.1538h-2.1538v-2.1538z"/><path fill="currentColor" d="M22.0391 15.0767v2.1538h-2.1538v-2.1538zM19.8841 15.0767v2.1538h-2.1538v-2.1538z"/><path fill="currentColor" d="M17.7305 15.0767v2.1538h-2.1538v-2.1538z"/><path fill="currentColor" d="M15.5768 15.0767v2.1538H13.423v-2.1538z"/><path fill="currentColor" d="M13.4232 15.0767v2.1538h-2.1538v-2.1538z"/><path fill="currentColor" d="M11.2695 15.0767v2.1538H9.1157v-2.1538z"/><path fill="currentColor" d="M9.1159 15.0767v2.1538H6.962v-2.1538zM6.961 15.0767v2.1538H4.807v-2.1538zM24.1927 17.231v2.1538h-2.1538V17.231zM6.961 17.231v2.1538H4.807V17.231z"/><path fill="currentColor" d="M24.1927 19.3848v2.1538h-2.1538v-2.1538zM6.961 19.3848v2.1538H4.807v-2.1538zM24.1927 21.5386v2.1538h-2.1538v-2.1538zM6.961 21.5386v2.1538H4.807v-2.1538zM6.961 23.6924v2.1538H4.807v-2.1538zM24.1927 23.6924v2.1538h-2.1538v-2.1538zM26.3464 25.8462V28h-2.1538v-2.1538z"/><path fill="currentColor" d="M24.1927 25.8462V28h-2.1538v-2.1538z"/><path fill="currentColor" d="M22.0391 25.8462V28h-2.1538v-2.1538zM19.8841 25.8462V28h-2.1538v-2.1538z"/><path fill="currentColor" d="M17.7305 25.8462V28h-2.1538v-2.1538z"/><path fill="currentColor" d="M15.5768 25.8462V28H13.423v-2.1538z"/><path fill="currentColor" d="M13.4232 25.8462V28h-2.1538v-2.1538z"/><path fill="currentColor" d="M11.2695 25.8462V28H9.1157v-2.1538z"/><path fill="currentColor" d="M9.1159 25.8462V28H6.962v-2.1538zM6.961 25.8462V28H4.807v-2.1538z"/><path fill="currentColor" d="M4.8073 25.8462V28H2.6535v-2.1538zM28.5 28h-2.1538v-2.1538H28.5zM28.5 25.8462h-2.1538v-2.1538H28.5zM28.5 23.6924h-2.1538v-2.1538H28.5zM28.5 21.5386h-2.1538v-2.1538H28.5zM28.5 19.3848h-2.1538V17.231H28.5zM28.5 17.231h-2.1538v-2.1538H28.5zM28.5 15.0767h-2.1538v-2.1538H28.5z"/><path fill="currentColor" d="M28.5 12.9233h-2.1538v-2.1538H28.5zM28.5 10.769h-2.1538V8.6152H28.5z"/><path fill="currentColor" d="M28.5 8.6153h-2.1538V6.4615H28.5zM28.5 6.4615h-2.1538V4.3077H28.5z"/>
    </symbol>
</svg>

